<svg width="32" height="32" viewBox="0 0 32 32" fill="none" xmlns="http://www.w3.org/2000/svg">
<path d="M12.8516 16.0005C12.8516 14.2651 14.2589 12.8578 15.9953 12.8578C17.7318 12.8578 19.1399 14.2651 19.1399 16.0005C19.1399 17.7359 17.7318 19.1432 15.9953 19.1432C14.2589 19.1432 12.8516 17.7359 12.8516 16.0005ZM11.1517 16.0005C11.1517 18.6741 13.3202 20.8413 15.9953 20.8413C18.6705 20.8413 20.839 18.6741 20.839 16.0005C20.839 13.3269 18.6705 11.1597 15.9953 11.1597C13.3202 11.1597 11.1517 13.3269 11.1517 16.0005ZM19.8988 10.9678C19.8987 11.1915 19.965 11.4103 20.0893 11.5964C20.2136 11.7824 20.3903 11.9275 20.5971 12.0132C20.8039 12.0989 21.0315 12.1214 21.2511 12.0779C21.4707 12.0343 21.6725 11.9266 21.8308 11.7685C21.9892 11.6103 22.0971 11.4088 22.1408 11.1894C22.1846 10.9699 22.1623 10.7425 22.0767 10.5357C21.9911 10.329 21.8461 10.1522 21.66 10.0279C21.4739 9.90348 21.2551 9.83705 21.0312 9.83696H21.0307C20.7307 9.8371 20.4429 9.95627 20.2307 10.1683C20.0184 10.3803 19.8991 10.6679 19.8988 10.9678ZM12.1845 23.6741C11.2648 23.6322 10.7649 23.4791 10.4328 23.3498C9.99236 23.1784 9.67813 22.9743 9.34775 22.6446C9.01738 22.3149 8.81287 22.0011 8.64218 21.561C8.51268 21.2292 8.35949 20.7294 8.31769 19.8103C8.27196 18.8166 8.26283 18.5181 8.26283 16.0006C8.26283 13.483 8.27271 13.1854 8.31769 12.1908C8.35957 11.2717 8.51389 10.773 8.64218 10.4402C8.81363 10 9.01783 9.68597 9.34775 9.35579C9.67768 9.02561 9.9916 8.82123 10.4328 8.65063C10.7648 8.52122 11.2648 8.36812 12.1845 8.32634C13.1788 8.28063 13.4775 8.27151 15.9953 8.27151C18.5132 8.27151 18.8122 8.28139 19.8073 8.32634C20.727 8.36819 21.226 8.52242 21.5591 8.65063C21.9995 8.82123 22.3137 9.02606 22.6441 9.35579C22.9744 9.68552 23.1782 10 23.3496 10.4402C23.4791 10.772 23.6323 11.2717 23.6741 12.1908C23.7199 13.1854 23.729 13.483 23.729 16.0006C23.729 18.5181 23.7199 18.8158 23.6741 19.8103C23.6322 20.7294 23.4783 21.229 23.3496 21.561C23.1782 22.0011 22.974 22.3152 22.6441 22.6446C22.3141 22.974 21.9995 23.1784 21.5591 23.3498C21.227 23.4792 20.727 23.6323 19.8073 23.6741C18.813 23.7198 18.5144 23.7289 15.9953 23.7289C13.4763 23.7289 13.1785 23.7198 12.1845 23.6741ZM12.1064 6.63033C11.1022 6.67604 10.416 6.83517 9.81675 7.06821C9.19615 7.30887 8.67078 7.63173 8.14578 8.15559C7.62079 8.67944 7.29856 9.20533 7.05776 9.82557C6.82458 10.4248 6.66536 11.1102 6.61963 12.1138C6.57314 13.119 6.5625 13.4404 6.5625 16.0005C6.5625 18.5606 6.57314 18.882 6.61963 19.8872C6.66536 20.8908 6.82458 21.5762 7.05776 22.1754C7.29856 22.7953 7.62086 23.3218 8.14578 23.8454C8.6707 24.369 9.19615 24.6915 9.81675 24.9328C10.4171 25.1658 11.1022 25.325 12.1064 25.3707C13.1127 25.4164 13.4337 25.4278 15.9953 25.4278C18.557 25.4278 18.8785 25.4171 19.8843 25.3707C20.8886 25.325 21.5743 25.1658 22.1739 24.9328C22.7942 24.6915 23.3199 24.3693 23.8449 23.8454C24.3699 23.3216 24.6914 22.7953 24.9329 22.1754C25.1661 21.5762 25.3261 20.8908 25.3711 19.8872C25.4168 18.8812 25.4274 18.5606 25.4274 16.0005C25.4274 13.4404 25.4168 13.119 25.3711 12.1138C25.3253 11.1102 25.1661 10.4245 24.9329 9.82557C24.6914 9.20571 24.3691 8.68027 23.8449 8.15559C23.3207 7.63091 22.7942 7.30887 22.1747 7.06821C21.5743 6.83517 20.8885 6.67528 19.8851 6.63033C18.8793 6.58463 18.5578 6.57324 15.9961 6.57324C13.4344 6.57324 13.1127 6.58388 12.1064 6.63033Z" fill="white"/>
</svg>
