<svg width="32" height="32" viewBox="0 0 32 32" fill="none" xmlns="http://www.w3.org/2000/svg">
<path fill-rule="evenodd" clip-rule="evenodd" d="M15.6425 6.22877C14.2133 6.36785 13.1357 6.67626 11.9668 7.28054C10.1824 8.2031 8.74158 9.67114 7.85071 11.4744C7.50845 12.1672 7.34714 12.5918 7.16826 13.2713C6.94273 14.1276 6.87707 14.6482 6.87504 15.5956C6.87404 16.0672 6.89351 16.5792 6.92005 16.7783C7.12184 18.2928 7.59746 19.5979 8.39292 20.8198L8.65804 21.2271L8.06909 22.9633C7.74515 23.9182 7.48524 24.7046 7.49149 24.7109C7.49779 24.7171 8.30797 24.4651 9.29194 24.1508C10.2759 23.8364 11.0942 23.5793 11.1103 23.5793C11.1264 23.5793 11.2783 23.6654 11.4478 23.7706C11.6174 23.8759 11.9726 24.0655 12.2373 24.1919C14.6303 25.3356 17.3659 25.4335 19.8163 24.4632C22.5926 23.3637 24.7251 20.9584 25.4862 18.0678C25.7194 17.1824 25.7785 16.697 25.7785 15.6695C25.7785 14.642 25.7194 14.1566 25.4862 13.2713C24.5933 9.88016 21.8715 7.24421 18.437 6.44436C17.8599 6.30997 17.2595 6.24189 16.5308 6.22825C16.1237 6.2206 15.7239 6.22082 15.6425 6.22877ZM13.3851 10.6147C13.4464 10.6465 13.5323 10.7365 13.576 10.8147C13.6863 11.0122 14.5861 13.1764 14.6123 13.3073C14.6459 13.4748 14.4819 13.7595 14.114 14.1726C13.73 14.6036 13.6475 14.742 13.6817 14.8974C13.7438 15.1795 14.5998 16.3131 15.1272 16.8117C15.9456 17.5853 17.1826 18.3199 17.7338 18.3596C18.0172 18.38 18.1205 18.2999 18.554 17.7237C18.7507 17.4623 18.9604 17.1996 19.0201 17.14C19.1629 16.9974 19.3748 16.9672 19.6125 17.0555C19.9174 17.1688 21.7811 18.0752 21.912 18.1738L22.0373 18.2682L22.0166 18.6598C21.9635 19.6652 21.6104 20.1873 20.6763 20.6412C19.7883 21.0728 19.0932 21.061 17.7324 20.5913C15.9067 19.9611 14.9376 19.3592 13.6245 18.0397C12.9674 17.3795 12.5005 16.8213 11.9664 16.0576C11.0864 14.7992 10.7489 13.8275 10.8493 12.8412C10.9299 12.0505 11.2066 11.4667 11.7655 10.9087C12.0358 10.6387 12.3896 10.5275 12.922 10.5453C13.1479 10.5528 13.3135 10.5776 13.3851 10.6147Z" fill="white"/>
</svg>
