<svg width="20" height="20" viewBox="0 0 20 20" fill="none" xmlns="http://www.w3.org/2000/svg">
<path d="M12.5002 1.66669C13.0854 1.66662 13.6603 1.82064 14.1672 2.11325C14.674 2.40586 15.0949 2.82675 15.3875 3.3336C15.68 3.84046 15.834 4.41541 15.8339 5.00065C15.8338 5.58589 15.6796 6.16078 15.3868 6.66753L19.1668 6.66669V8.33336H17.5002V16.6667C17.5002 16.8877 17.4124 17.0997 17.2561 17.2559C17.0998 17.4122 16.8878 17.5 16.6668 17.5H3.3335C3.11248 17.5 2.90052 17.4122 2.74424 17.2559C2.58796 17.0997 2.50016 16.8877 2.50016 16.6667V8.33336H0.833496V6.66669L4.6135 6.66753C4.20005 5.9516 4.0674 5.10757 4.24132 4.29934C4.41523 3.4911 4.88329 2.77633 5.55461 2.29382C6.22593 1.81131 7.05261 1.59548 7.87412 1.68826C8.69563 1.78103 9.45336 2.17578 10.0002 2.79586C10.3123 2.44034 10.6969 2.15567 11.1281 1.96092C11.5592 1.76618 12.0271 1.66586 12.5002 1.66669ZM10.8335 8.33336H9.16683V16.6667H10.8335V8.33336ZM7.50016 3.33336C7.06768 3.33142 6.65137 3.49768 6.3392 3.79701C6.02703 4.09633 5.84344 4.50529 5.82721 4.93747C5.81098 5.36966 5.96339 5.79123 6.25224 6.11312C6.54109 6.43502 6.94375 6.63202 7.37516 6.66253L7.50016 6.66669H9.16683V5.00003C9.16685 4.60174 9.02424 4.21662 8.76482 3.91441C8.50541 3.61219 8.14635 3.41287 7.75266 3.35253L7.62433 3.33753L7.50016 3.33336ZM12.5002 3.33336C12.0797 3.33323 11.6747 3.49203 11.3664 3.77794C11.0581 4.06385 10.8692 4.45573 10.8377 4.87503L10.8335 5.00003V6.66669H12.5002C12.9206 6.66683 13.3256 6.50802 13.634 6.22211C13.9423 5.9362 14.1311 5.54432 14.1627 5.12503L14.1668 5.00003C14.1668 4.558 13.9912 4.13407 13.6787 3.82151C13.3661 3.50895 12.9422 3.33336 12.5002 3.33336Z" fill="white"/>
</svg>
