<svg width="220" height="37" viewBox="0 0 220 37" fill="none" xmlns="http://www.w3.org/2000/svg">
<rect x="8.23535" y="10.1494" width="2.73683" height="10.2573" rx="1.36842" transform="rotate(-45 8.23535 10.1494)" fill="#FFE0A2"/>
<rect x="26.6006" y="8.2168" width="2.73528" height="10.2631" rx="1.36764" transform="rotate(45 26.6006 8.2168)" fill="#FFE0A2"/>
<rect x="28.5552" y="26.5952" width="2.73683" height="10.2573" rx="1.36842" transform="rotate(135 28.5552 26.5952)" fill="#FFE0A2"/>
<rect x="10.1494" y="28.5342" width="2.73528" height="10.2631" rx="1.36764" transform="rotate(-135 10.1494 28.5342)" fill="#FFE0A2"/>
<g opacity="0.75">
<rect x="69.0024" y="10.1494" width="2.73683" height="10.2573" rx="1.36842" transform="rotate(-45 69.0024 10.1494)" fill="#FFE0A2"/>
<rect x="87.3677" y="8.2168" width="2.73528" height="10.2631" rx="1.36764" transform="rotate(45 87.3677 8.2168)" fill="#FFE0A2"/>
<rect x="89.3223" y="26.5952" width="2.73683" height="10.2573" rx="1.36842" transform="rotate(135 89.3223 26.5952)" fill="#FFE0A2"/>
<rect x="70.9165" y="28.5342" width="2.73528" height="10.2631" rx="1.36764" transform="rotate(-135 70.9165 28.5342)" fill="#FFE0A2"/>
</g>
<g opacity="0.5">
<rect x="129.77" y="10.1494" width="2.73683" height="10.2573" rx="1.36842" transform="rotate(-45 129.77 10.1494)" fill="#FFE0A2"/>
<rect x="148.135" y="8.2168" width="2.73528" height="10.2631" rx="1.36764" transform="rotate(45 148.135 8.2168)" fill="#FFE0A2"/>
<rect x="150.089" y="26.5952" width="2.73683" height="10.2573" rx="1.36842" transform="rotate(135 150.089 26.5952)" fill="#FFE0A2"/>
<rect x="131.684" y="28.5342" width="2.73528" height="10.2631" rx="1.36764" transform="rotate(-135 131.684 28.5342)" fill="#FFE0A2"/>
</g>
<g opacity="0.25">
<rect x="190.537" y="10.1494" width="2.73683" height="10.2573" rx="1.36842" transform="rotate(-45 190.537 10.1494)" fill="#FFE0A2"/>
<rect x="208.902" y="8.2168" width="2.73528" height="10.2631" rx="1.36764" transform="rotate(45 208.902 8.2168)" fill="#FFE0A2"/>
<rect x="210.856" y="26.5952" width="2.73683" height="10.2573" rx="1.36842" transform="rotate(135 210.856 26.5952)" fill="#FFE0A2"/>
<rect x="192.451" y="28.5342" width="2.73528" height="10.2631" rx="1.36764" transform="rotate(-135 192.451 28.5342)" fill="#FFE0A2"/>
</g>
</svg>
