<svg width="32" height="32" viewBox="0 0 32 32" fill="none" xmlns="http://www.w3.org/2000/svg">
<path d="M7.70648 15.5123C7.70648 15.5123 15.1701 12.3371 17.7586 11.219C18.7509 10.7717 22.116 9.34058 22.116 9.34058C22.116 9.34058 23.6691 8.71449 23.5397 10.235C23.4965 10.8612 23.1514 13.0526 22.8063 15.4229C22.2885 18.7771 21.7277 22.4444 21.7277 22.4444C21.7277 22.4444 21.6414 23.4731 20.908 23.6519C20.1746 23.8308 18.9666 23.0258 18.7509 22.8469C18.5783 22.7128 15.5152 20.7002 14.3935 19.7163C14.0915 19.448 13.7464 18.9113 14.4366 18.2852C15.9898 16.8093 17.8449 14.9757 18.9666 13.8129C19.4843 13.2762 20.002 12.024 17.8449 13.5445C14.7818 15.736 11.7618 17.7932 11.7618 17.7932C11.7618 17.7932 11.0716 18.2404 9.7773 17.8379C8.483 17.4355 6.97302 16.8988 6.97302 16.8988C6.97302 16.8988 5.93766 16.2279 7.70648 15.5123Z" fill="white"/>
</svg>
