<svg width="180" height="84" viewBox="0 0 180 84" fill="none" xmlns="http://www.w3.org/2000/svg">
<path d="M89.9871 41.2047C82.7287 41.2047 76.8211 47.1053 76.8211 54.3552C76.8211 61.6051 82.7287 67.5057 89.9871 67.5057C97.2456 67.5057 103.153 61.6051 103.153 54.3552C103.153 47.1053 97.2456 41.2047 89.9871 41.2047ZM89.9871 69.6285C81.549 69.6285 74.6958 62.7744 74.6958 54.3552C74.6958 45.936 81.558 39.0819 89.9871 39.0819C98.4163 39.0819 105.278 45.936 105.278 54.3552C105.278 62.7744 98.4163 69.6285 89.9871 69.6285Z" fill="#FFE0A2"/>
<path d="M89.9911 27.4353C75.132 27.4353 63.0376 39.5154 63.0376 54.357C63.0376 69.1985 75.132 81.2787 89.9911 81.2787C104.85 81.2787 116.944 69.1985 116.944 54.357C116.944 39.5154 104.85 27.4353 89.9911 27.4353ZM89.9911 83.4015C73.9523 83.4015 60.9123 70.3679 60.9123 54.357C60.9123 38.3461 73.9613 25.3125 89.9911 25.3125C106.021 25.3125 119.07 38.3461 119.07 54.357C119.07 70.3679 106.021 83.4015 89.9911 83.4015Z" fill="#FFE0A2"/>
<path d="M58.4186 3.73334H0V1.61054H59.4362L58.4186 3.73334Z" fill="#FFE0A2"/>
<path d="M43.7951 73.3153C43.1467 73.3153 42.4983 73.4772 41.913 73.7921C40.9764 74.2958 40.292 75.1323 39.9858 76.1577C39.3554 78.2625 40.5531 80.4843 42.6604 81.1139C44.7677 81.7436 46.9921 80.5472 47.6224 78.4424C47.9286 77.426 47.8206 76.3466 47.3163 75.4111C46.8119 74.4757 45.9744 73.7921 44.9478 73.4862C44.5696 73.3693 44.1823 73.3153 43.7951 73.3153ZM43.7951 83.4076C43.2098 83.4076 42.6244 83.3267 42.039 83.1468C38.8151 82.1753 36.969 78.7662 37.9415 75.5371C38.4098 73.972 39.4635 72.6857 40.9043 71.9121C42.3452 71.1386 43.9932 70.9767 45.5602 71.4444C47.1271 71.9121 48.4149 72.9645 49.1894 74.4037C49.9639 75.8429 50.135 77.489 49.6577 79.0541C48.8652 81.6986 46.4247 83.4076 43.7951 83.4076Z" fill="#FFE0A2"/>
<path d="M180 26.427C180 11.8553 168.131 0 153.533 0C146.815 0 140.421 2.51857 135.504 7.07898C130.632 11.6124 127.66 17.7469 127.147 24.3492H129.281C129.794 18.3406 132.505 12.7637 136.945 8.63509C141.457 4.43448 147.346 2.12279 153.524 2.12279C166.942 2.12279 177.857 13.0246 177.857 26.427V26.4899C177.857 29.6921 176.875 32.8223 175.137 35.5208L145.41 81.5926H178.433V79.4698H149.309L176.515 37.3018C177.181 36.2764 180.117 31.9408 179.982 26.436" fill="#FFE0A2"/>
<path d="M131.734 81.5836L175.735 13.933L173.952 12.7727L129.195 81.5836H131.734Z" fill="#FFE0A2"/>
<path d="M3.85058 84L42.7633 3.14086L40.8452 2.21438L1.49114 84H3.85058Z" fill="#FFE0A2"/>
<path d="M20.2804 83.9748L58.4151 3.73452L56.7941 2.21438L17.912 83.9748H20.2804Z" fill="#FFE0A2"/>
<path d="M90.1866 1.61054L64.9532 39.56L66.7183 40.7293L92.7351 1.61054H90.1866Z" fill="#FFE0A2"/>
</svg>
