<svg width="597" height="458" viewBox="0 0 597 458" fill="none" xmlns="http://www.w3.org/2000/svg">
<g clip-path="url(#clip0_1_599)">
<rect x="8" y="132.162" width="520.594" height="333.017" rx="24" transform="rotate(-12 8 132.162)" fill="url(#paint0_linear_1_599)" fill-opacity="0.5"/>
<g opacity="0.5">
<g opacity="0.12">
<rect x="34.6211" y="163.267" width="4.84197" height="18.1474" rx="2.42098" transform="rotate(-57 34.6211 163.267)" fill="white"/>
<rect x="65.6953" y="153.166" width="4.8393" height="18.1574" rx="2.41965" transform="rotate(33 65.6953 153.166)" fill="white"/>
<rect x="75.8354" y="184.252" width="4.84197" height="18.1474" rx="2.42098" transform="rotate(123 75.8354 184.252)" fill="white"/>
<rect x="44.6963" y="194.378" width="4.8393" height="18.1574" rx="2.41965" transform="rotate(-147 44.6963 194.378)" fill="white"/>
</g>
<g opacity="0.12">
<rect x="121.725" y="144.752" width="4.84197" height="18.1474" rx="2.42098" transform="rotate(-57 121.725 144.752)" fill="white"/>
<rect x="152.799" y="134.651" width="4.8393" height="18.1574" rx="2.41965" transform="rotate(33 152.799 134.651)" fill="white"/>
<rect x="162.94" y="165.738" width="4.84197" height="18.1474" rx="2.42098" transform="rotate(123 162.94 165.738)" fill="white"/>
<rect x="131.8" y="175.863" width="4.8393" height="18.1574" rx="2.41965" transform="rotate(-147 131.8 175.863)" fill="white"/>
</g>
<g opacity="0.12">
<rect x="208.83" y="126.237" width="4.84197" height="18.1474" rx="2.42098" transform="rotate(-57 208.83 126.237)" fill="white"/>
<rect x="239.904" y="116.137" width="4.8393" height="18.1574" rx="2.41965" transform="rotate(33 239.904 116.137)" fill="white"/>
<rect x="250.044" y="147.223" width="4.84197" height="18.1474" rx="2.42098" transform="rotate(123 250.044 147.223)" fill="white"/>
<rect x="218.905" y="157.349" width="4.8393" height="18.1574" rx="2.41965" transform="rotate(-147 218.905 157.349)" fill="white"/>
</g>
<g opacity="0.12">
<rect x="295.934" y="107.723" width="4.84197" height="18.1474" rx="2.42098" transform="rotate(-57 295.934 107.723)" fill="white"/>
<rect x="327.008" y="97.6226" width="4.8393" height="18.1574" rx="2.41965" transform="rotate(33 327.008 97.6226)" fill="white"/>
<rect x="337.148" y="128.708" width="4.84197" height="18.1474" rx="2.42098" transform="rotate(123 337.148 128.708)" fill="white"/>
<rect x="306.009" y="138.834" width="4.8393" height="18.1574" rx="2.41965" transform="rotate(-147 306.009 138.834)" fill="white"/>
</g>
<g opacity="0.12">
<rect x="383.039" y="89.2083" width="4.84197" height="18.1474" rx="2.42098" transform="rotate(-57 383.039 89.2083)" fill="white"/>
<rect x="414.113" y="79.1079" width="4.8393" height="18.1574" rx="2.41965" transform="rotate(33 414.113 79.1079)" fill="white"/>
<rect x="424.253" y="110.194" width="4.84197" height="18.1474" rx="2.42098" transform="rotate(123 424.253 110.194)" fill="white"/>
<rect x="393.114" y="120.32" width="4.8393" height="18.1574" rx="2.41965" transform="rotate(-147 393.114 120.32)" fill="white"/>
</g>
<g opacity="0.12">
<rect x="470.143" y="70.6936" width="4.84197" height="18.1474" rx="2.42098" transform="rotate(-57 470.143 70.6936)" fill="white"/>
<rect x="501.217" y="60.5933" width="4.8393" height="18.1574" rx="2.41965" transform="rotate(33 501.217 60.5933)" fill="white"/>
<rect x="511.357" y="91.6792" width="4.84197" height="18.1474" rx="2.42098" transform="rotate(123 511.357 91.6792)" fill="white"/>
<rect x="480.218" y="101.805" width="4.8393" height="18.1574" rx="2.41965" transform="rotate(-147 480.218 101.805)" fill="white"/>
</g>
<g opacity="0.12">
<rect x="50.6406" y="238.633" width="4.84197" height="18.1474" rx="2.42098" transform="rotate(-57 50.6406 238.633)" fill="white"/>
<rect x="81.7148" y="228.533" width="4.8393" height="18.1574" rx="2.41965" transform="rotate(33 81.7148 228.533)" fill="white"/>
<rect x="91.8555" y="259.619" width="4.84197" height="18.1474" rx="2.42098" transform="rotate(123 91.8555 259.619)" fill="white"/>
<rect x="60.7158" y="269.744" width="4.8393" height="18.1574" rx="2.41965" transform="rotate(-147 60.7158 269.744)" fill="white"/>
</g>
<g opacity="0.12">
<rect x="137.745" y="220.119" width="4.84197" height="18.1474" rx="2.42098" transform="rotate(-57 137.745 220.119)" fill="white"/>
<rect x="168.819" y="210.018" width="4.8393" height="18.1574" rx="2.41965" transform="rotate(33 168.819 210.018)" fill="white"/>
<rect x="178.96" y="241.104" width="4.84197" height="18.1474" rx="2.42098" transform="rotate(123 178.96 241.104)" fill="white"/>
<rect x="147.82" y="251.23" width="4.8393" height="18.1574" rx="2.41965" transform="rotate(-147 147.82 251.23)" fill="white"/>
</g>
<g opacity="0.12">
<rect x="224.85" y="201.604" width="4.84197" height="18.1474" rx="2.42098" transform="rotate(-57 224.85 201.604)" fill="white"/>
<rect x="255.924" y="191.504" width="4.8393" height="18.1574" rx="2.41965" transform="rotate(33 255.924 191.504)" fill="white"/>
<rect x="266.064" y="222.59" width="4.84197" height="18.1474" rx="2.42098" transform="rotate(123 266.064 222.59)" fill="white"/>
<rect x="234.925" y="232.716" width="4.8393" height="18.1574" rx="2.41965" transform="rotate(-147 234.925 232.716)" fill="white"/>
</g>
<g opacity="0.12">
<rect x="311.954" y="183.09" width="4.84197" height="18.1474" rx="2.42098" transform="rotate(-57 311.954 183.09)" fill="white"/>
<rect x="343.028" y="172.99" width="4.8393" height="18.1574" rx="2.41965" transform="rotate(33 343.028 172.99)" fill="white"/>
<rect x="353.168" y="204.075" width="4.84197" height="18.1474" rx="2.42098" transform="rotate(123 353.168 204.075)" fill="white"/>
<rect x="322.029" y="214.201" width="4.8393" height="18.1574" rx="2.41965" transform="rotate(-147 322.029 214.201)" fill="white"/>
</g>
<g opacity="0.12">
<rect x="399.058" y="164.575" width="4.84197" height="18.1474" rx="2.42098" transform="rotate(-57 399.058 164.575)" fill="white"/>
<rect x="430.132" y="154.475" width="4.8393" height="18.1574" rx="2.41965" transform="rotate(33 430.132 154.475)" fill="white"/>
<rect x="440.273" y="185.561" width="4.84197" height="18.1474" rx="2.42098" transform="rotate(123 440.273 185.561)" fill="white"/>
<rect x="409.133" y="195.687" width="4.8393" height="18.1574" rx="2.41965" transform="rotate(-147 409.133 195.687)" fill="white"/>
</g>
<g opacity="0.12">
<rect x="486.162" y="146.06" width="4.84197" height="18.1474" rx="2.42098" transform="rotate(-57 486.162 146.06)" fill="white"/>
<rect x="517.236" y="135.96" width="4.8393" height="18.1574" rx="2.41965" transform="rotate(33 517.236 135.96)" fill="white"/>
<rect x="527.377" y="167.046" width="4.84197" height="18.1474" rx="2.42098" transform="rotate(123 527.377 167.046)" fill="white"/>
<rect x="496.237" y="177.172" width="4.8393" height="18.1574" rx="2.41965" transform="rotate(-147 496.237 177.172)" fill="white"/>
</g>
<g opacity="0.12">
<rect x="66.6606" y="314" width="4.84197" height="18.1474" rx="2.42098" transform="rotate(-57 66.6606 314)" fill="white"/>
<rect x="97.7349" y="303.9" width="4.8393" height="18.1574" rx="2.41965" transform="rotate(33 97.7349 303.9)" fill="white"/>
<rect x="107.875" y="334.986" width="4.84197" height="18.1474" rx="2.42098" transform="rotate(123 107.875 334.986)" fill="white"/>
<rect x="76.7358" y="345.112" width="4.8393" height="18.1574" rx="2.41965" transform="rotate(-147 76.7358 345.112)" fill="white"/>
</g>
<g opacity="0.12">
<rect x="153.765" y="295.486" width="4.84197" height="18.1474" rx="2.42098" transform="rotate(-57 153.765 295.486)" fill="white"/>
<rect x="184.839" y="285.385" width="4.8393" height="18.1574" rx="2.41965" transform="rotate(33 184.839 285.385)" fill="white"/>
<rect x="194.979" y="316.471" width="4.84197" height="18.1474" rx="2.42098" transform="rotate(123 194.979 316.471)" fill="white"/>
<rect x="163.84" y="326.597" width="4.8393" height="18.1574" rx="2.41965" transform="rotate(-147 163.84 326.597)" fill="white"/>
</g>
<g opacity="0.12">
<rect x="240.87" y="276.971" width="4.84197" height="18.1474" rx="2.42098" transform="rotate(-57 240.87 276.971)" fill="white"/>
<rect x="271.944" y="266.871" width="4.8393" height="18.1574" rx="2.41965" transform="rotate(33 271.944 266.871)" fill="white"/>
<rect x="282.084" y="297.957" width="4.84197" height="18.1474" rx="2.42098" transform="rotate(123 282.084 297.957)" fill="white"/>
<rect x="250.945" y="308.083" width="4.8393" height="18.1574" rx="2.41965" transform="rotate(-147 250.945 308.083)" fill="white"/>
</g>
<g opacity="0.12">
<rect x="327.974" y="258.457" width="4.84197" height="18.1474" rx="2.42098" transform="rotate(-57 327.974 258.457)" fill="white"/>
<rect x="359.048" y="248.356" width="4.8393" height="18.1574" rx="2.41965" transform="rotate(33 359.048 248.356)" fill="white"/>
<rect x="369.188" y="279.443" width="4.84197" height="18.1474" rx="2.42098" transform="rotate(123 369.188 279.443)" fill="white"/>
<rect x="338.049" y="289.568" width="4.8393" height="18.1574" rx="2.41965" transform="rotate(-147 338.049 289.568)" fill="white"/>
</g>
<g opacity="0.12">
<rect x="415.078" y="239.942" width="4.84197" height="18.1474" rx="2.42098" transform="rotate(-57 415.078 239.942)" fill="white"/>
<rect x="446.152" y="229.842" width="4.8393" height="18.1574" rx="2.41965" transform="rotate(33 446.152 229.842)" fill="white"/>
<rect x="456.292" y="260.928" width="4.84197" height="18.1474" rx="2.42098" transform="rotate(123 456.292 260.928)" fill="white"/>
<rect x="425.153" y="271.053" width="4.8393" height="18.1574" rx="2.41965" transform="rotate(-147 425.153 271.053)" fill="white"/>
</g>
<g opacity="0.12">
<rect x="502.182" y="221.427" width="4.84197" height="18.1474" rx="2.42098" transform="rotate(-57 502.182 221.427)" fill="white"/>
<rect x="533.256" y="211.327" width="4.8393" height="18.1574" rx="2.41965" transform="rotate(33 533.256 211.327)" fill="white"/>
<rect x="543.396" y="242.413" width="4.84197" height="18.1474" rx="2.42098" transform="rotate(123 543.396 242.413)" fill="white"/>
<rect x="512.257" y="252.539" width="4.8393" height="18.1574" rx="2.41965" transform="rotate(-147 512.257 252.539)" fill="white"/>
</g>
<g opacity="0.12">
<rect x="82.6802" y="389.367" width="4.84197" height="18.1474" rx="2.42098" transform="rotate(-57 82.6802 389.367)" fill="white"/>
<rect x="113.754" y="379.267" width="4.8393" height="18.1574" rx="2.41965" transform="rotate(33 113.754 379.267)" fill="white"/>
<rect x="123.895" y="410.353" width="4.84197" height="18.1474" rx="2.42098" transform="rotate(123 123.895 410.353)" fill="white"/>
<rect x="92.7554" y="420.479" width="4.8393" height="18.1574" rx="2.41965" transform="rotate(-147 92.7554 420.479)" fill="white"/>
</g>
<g opacity="0.12">
<rect x="169.784" y="370.853" width="4.84197" height="18.1474" rx="2.42098" transform="rotate(-57 169.784 370.853)" fill="white"/>
<rect x="200.858" y="360.752" width="4.8393" height="18.1574" rx="2.41965" transform="rotate(33 200.858 360.752)" fill="white"/>
<rect x="210.999" y="391.838" width="4.84197" height="18.1474" rx="2.42098" transform="rotate(123 210.999 391.838)" fill="white"/>
<rect x="179.859" y="401.964" width="4.8393" height="18.1574" rx="2.41965" transform="rotate(-147 179.859 401.964)" fill="white"/>
</g>
<g opacity="0.12">
<rect x="256.888" y="352.338" width="4.84197" height="18.1474" rx="2.42098" transform="rotate(-57 256.888 352.338)" fill="white"/>
<rect x="287.962" y="342.237" width="4.8393" height="18.1574" rx="2.41965" transform="rotate(33 287.962 342.237)" fill="white"/>
<rect x="298.103" y="373.323" width="4.84197" height="18.1474" rx="2.42098" transform="rotate(123 298.103 373.323)" fill="white"/>
<rect x="266.963" y="383.449" width="4.8393" height="18.1574" rx="2.41965" transform="rotate(-147 266.963 383.449)" fill="white"/>
</g>
<g opacity="0.12">
<rect x="343.993" y="333.823" width="4.84197" height="18.1474" rx="2.42098" transform="rotate(-57 343.993 333.823)" fill="white"/>
<rect x="375.067" y="323.723" width="4.8393" height="18.1574" rx="2.41965" transform="rotate(33 375.067 323.723)" fill="white"/>
<rect x="385.208" y="354.809" width="4.84197" height="18.1474" rx="2.42098" transform="rotate(123 385.208 354.809)" fill="white"/>
<rect x="354.068" y="364.935" width="4.8393" height="18.1574" rx="2.41965" transform="rotate(-147 354.068 364.935)" fill="white"/>
</g>
<g opacity="0.12">
<rect x="431.098" y="315.309" width="4.84197" height="18.1474" rx="2.42098" transform="rotate(-57 431.098 315.309)" fill="white"/>
<rect x="462.172" y="305.208" width="4.8393" height="18.1574" rx="2.41965" transform="rotate(33 462.172 305.208)" fill="white"/>
<rect x="472.312" y="336.294" width="4.84197" height="18.1474" rx="2.42098" transform="rotate(123 472.312 336.294)" fill="white"/>
<rect x="441.173" y="346.42" width="4.8393" height="18.1574" rx="2.41965" transform="rotate(-147 441.173 346.42)" fill="white"/>
</g>
<g opacity="0.12">
<rect x="518.202" y="296.794" width="4.84197" height="18.1474" rx="2.42098" transform="rotate(-57 518.202 296.794)" fill="white"/>
<rect x="549.276" y="286.694" width="4.8393" height="18.1574" rx="2.41965" transform="rotate(33 549.276 286.694)" fill="white"/>
<rect x="559.417" y="317.78" width="4.84197" height="18.1474" rx="2.42098" transform="rotate(123 559.417 317.78)" fill="white"/>
<rect x="528.277" y="327.906" width="4.8393" height="18.1574" rx="2.41965" transform="rotate(-147 528.277 327.906)" fill="white"/>
</g>
</g>
<path opacity="0.75" d="M277.432 186.521L277.343 186.904L277.238 187.356L277.24 187.358L277.201 187.527L271.735 211.16L271.7 211.315L270.542 211.561L270.63 211.179L276.013 187.926L273.008 188.565L267.605 212.038L267.569 212.193L266.414 212.439L266.502 212.057L271.853 188.81L261.524 191.006L261.3 189.95L277.432 186.521ZM276.093 206.446C276.476 206.115 276.964 205.959 277.466 206.002C277.969 206.046 278.426 206.289 278.751 206.681C279.076 207.071 279.234 207.565 279.193 208.074C279.128 208.935 278.508 209.618 277.714 209.787C277.539 209.825 277.356 209.837 277.167 209.819C276.131 209.725 275.359 208.795 275.44 207.747C275.478 207.239 275.71 206.776 276.093 206.446ZM286.189 184.66L286.024 185.09L283.053 192.814C283.99 192.054 285.112 191.5 286.364 191.234C290.686 190.316 294.957 193.162 295.893 197.565C296.828 201.967 294.084 206.305 289.763 207.224C285.44 208.143 281.17 205.296 280.234 200.893C279.938 199.501 280.01 198.115 280.383 196.842L280.364 196.837L280.462 196.579L280.497 196.486C280.559 196.308 280.626 196.133 280.698 195.962L284.892 185.052L284.941 184.925L286.189 184.66ZM301.863 180.888C305.443 180.313 308.907 182.524 310.012 186.008L310.115 186.36L310.117 186.37L310.198 186.731L310.256 187.018C310.497 188.441 310.01 189.675 309.901 189.967L309.9 189.966L305.353 202.303L312.751 200.731L312.976 201.786L303.674 203.763L303.83 203.338L308.972 189.395L309.069 189.102C309.271 188.41 309.309 187.677 309.159 186.972L309.155 186.955C308.964 186.053 308.591 185.236 308.087 184.533L300.729 204.267L300.681 204.396L299.44 204.66L299.599 204.234L307.286 183.614C305.837 182.238 303.788 181.573 301.726 182.011C300.178 182.34 298.827 183.247 297.925 184.565C297.036 185.862 296.66 187.439 296.859 189.011L296.887 189.239L295.842 189.461L295.807 189.194C295.558 187.343 296 185.478 297.049 183.947C298.108 182.406 299.689 181.341 301.504 180.955L301.863 180.888ZM286.589 192.289C282.853 193.083 280.463 196.841 281.277 200.672C282.091 204.502 285.803 206.963 289.539 206.169C293.274 205.374 295.664 201.617 294.85 197.787C294.035 193.956 290.324 191.496 286.589 192.289ZM277.048 207.121C276.955 207.153 276.867 207.203 276.789 207.27C276.624 207.413 276.524 207.612 276.507 207.837C276.472 208.302 276.814 208.705 277.258 208.744C277.701 208.783 278.094 208.448 278.129 207.986L278.131 207.903C278.128 207.709 278.06 207.523 277.935 207.373C277.792 207.202 277.595 207.098 277.378 207.079L277.377 207.08L277.376 207.079C277.299 207.071 277.221 207.077 277.142 207.094L277.048 207.121ZM287.144 194.908C289.483 194.411 291.79 195.952 292.295 198.329C292.8 200.705 291.32 203.052 288.981 203.549C286.64 204.046 284.334 202.505 283.829 200.128C283.324 197.752 284.806 195.405 287.144 194.908ZM287.369 195.964C285.616 196.337 284.49 198.102 284.873 199.906C285.257 201.711 287.003 202.866 288.757 202.493C290.51 202.12 291.637 200.355 291.253 198.55C290.869 196.746 289.122 195.592 287.369 195.964Z" fill="white" stroke="white" stroke-width="0.5"/>
<path d="M139.659 323.98L138.344 317.794L179.583 309.029L180.898 315.214L139.659 323.98ZM156.288 276.076L165.093 317.496L157.269 319.159L149.87 284.349L133.608 291.038L132.241 284.61L149.436 277.532L156.288 276.076ZM206.358 310.5C203.326 311.144 200.468 311.414 197.783 311.308C195.139 311.194 192.697 310.741 190.458 309.949C188.251 309.109 186.276 307.965 184.532 306.519C182.779 305.032 181.314 303.209 180.137 301.051C178.96 298.893 178.083 296.459 177.507 293.75C176.923 291.001 176.734 288.421 176.94 286.011C177.146 283.601 177.747 281.36 178.744 279.289C179.74 277.218 181.08 275.37 182.763 273.744C184.478 272.07 186.519 270.643 188.889 269.463C191.298 268.275 194.019 267.358 197.051 266.714C200.084 266.069 202.922 265.804 205.566 265.918C208.251 266.024 210.717 266.493 212.964 267.325C215.203 268.117 217.179 269.26 218.891 270.756C220.644 272.242 222.104 274.045 223.273 276.163C224.441 278.281 225.318 280.714 225.902 283.464C226.478 286.172 226.667 288.752 226.47 291.203C226.272 293.653 225.675 295.914 224.679 297.985C223.674 300.016 222.314 301.868 220.599 303.543C218.916 305.168 216.87 306.575 214.46 307.763C212.091 308.943 209.391 309.855 206.358 310.5ZM205.044 304.314C207.105 303.876 208.938 303.254 210.542 302.448C212.186 301.634 213.564 300.665 214.678 299.541C215.823 298.368 216.707 297.06 217.33 295.617C217.944 294.135 218.302 292.537 218.403 290.826C218.536 289.065 218.387 287.174 217.958 285.152C217.528 283.131 216.899 281.363 216.07 279.849C215.273 278.286 214.296 276.972 213.14 275.908C211.985 274.843 210.649 274.029 209.135 273.463C207.652 272.849 205.994 272.504 204.161 272.429C202.368 272.345 200.441 272.522 198.379 272.96C196.277 273.407 194.424 274.034 192.82 274.839C191.217 275.645 189.842 276.634 188.697 277.807C187.584 278.931 186.716 280.215 186.093 281.657C185.47 283.099 185.112 284.697 185.02 286.449C184.919 288.16 185.083 290.027 185.513 292.049C185.942 294.07 186.556 295.862 187.353 297.426C188.141 298.948 189.118 300.262 190.282 301.367C191.438 302.431 192.757 303.27 194.24 303.885C195.755 304.45 197.408 304.775 199.201 304.859C200.994 304.942 202.941 304.761 205.044 304.314ZM274.944 295.921C271.912 296.566 269.054 296.835 266.369 296.73C263.725 296.616 261.283 296.163 259.044 295.371C256.837 294.53 254.862 293.387 253.118 291.94C251.365 290.454 249.9 288.631 248.723 286.473C247.546 284.314 246.669 281.881 246.093 279.172C245.509 276.423 245.32 273.843 245.526 271.433C245.732 269.022 246.333 266.782 247.33 264.711C248.326 262.64 249.666 260.791 251.349 259.166C253.063 257.492 255.105 256.064 257.474 254.885C259.884 253.697 262.605 252.78 265.637 252.136C268.67 251.491 271.508 251.226 274.152 251.34C276.836 251.445 279.303 251.914 281.55 252.746C283.789 253.538 285.764 254.682 287.477 256.177C289.23 257.664 290.69 259.466 291.859 261.584C293.027 263.702 293.904 266.136 294.488 268.885C295.064 271.594 295.253 274.174 295.056 276.624C294.858 279.075 294.261 281.336 293.265 283.407C292.26 285.438 290.9 287.29 289.185 288.965C287.502 290.59 285.456 291.997 283.046 293.185C280.677 294.365 277.976 295.277 274.944 295.921ZM273.629 289.736C275.691 289.297 277.524 288.675 279.128 287.87C280.772 287.055 282.15 286.086 283.263 284.962C284.409 283.789 285.293 282.481 285.916 281.039C286.53 279.556 286.888 277.959 286.989 276.247C287.122 274.486 286.973 272.595 286.544 270.574C286.114 268.552 285.485 266.785 284.656 265.27C283.859 263.707 282.882 262.394 281.726 261.329C280.57 260.265 279.235 259.45 277.721 258.885C276.238 258.27 274.58 257.926 272.747 257.85C270.954 257.767 269.027 257.944 266.965 258.382C264.863 258.829 263.01 259.455 261.406 260.261C259.803 261.066 258.428 262.056 257.283 263.229C256.17 264.353 255.302 265.636 254.679 267.079C254.056 268.521 253.698 270.118 253.605 271.87C253.504 273.582 253.669 275.449 254.098 277.47C254.528 279.492 255.142 281.284 255.939 282.847C256.727 284.37 257.704 285.684 258.868 286.788C260.024 287.852 261.343 288.692 262.826 289.306C264.341 289.872 265.994 290.196 267.787 290.28C269.58 290.364 271.527 290.182 273.629 289.736ZM328.307 284.579C325.275 285.223 322.417 285.493 319.732 285.387C317.088 285.273 314.646 284.82 312.407 284.028C310.2 283.188 308.225 282.044 306.481 280.598C304.728 279.111 303.263 277.288 302.086 275.13C300.909 272.972 300.032 270.538 299.456 267.829C298.872 265.08 298.683 262.5 298.889 260.09C299.095 257.68 299.696 255.439 300.693 253.368C301.689 251.297 303.029 249.449 304.712 247.823C306.426 246.149 308.468 244.722 310.837 243.542C313.247 242.354 315.968 241.437 319 240.793C322.033 240.148 324.871 239.883 327.515 239.997C330.199 240.103 332.666 240.572 334.913 241.404C337.152 242.196 339.127 243.339 340.84 244.835C342.593 246.321 344.053 248.124 345.222 250.242C346.39 252.36 347.267 254.793 347.851 257.543C348.427 260.251 348.616 262.831 348.419 265.282C348.221 267.732 347.624 269.993 346.628 272.064C345.623 274.095 344.263 275.947 342.548 277.622C340.865 279.247 338.819 280.654 336.409 281.842C334.04 283.022 331.339 283.934 328.307 284.579ZM326.992 278.393C329.054 277.955 330.887 277.333 332.491 276.527C334.135 275.713 335.513 274.744 336.626 273.62C337.772 272.447 338.656 271.139 339.279 269.696C339.893 268.214 340.251 266.616 340.352 264.905C340.485 263.144 340.336 261.253 339.907 259.231C339.477 257.21 338.848 255.442 338.019 253.928C337.222 252.365 336.245 251.051 335.089 249.987C333.933 248.922 332.598 248.108 331.084 247.542C329.601 246.928 327.943 246.583 326.11 246.508C324.317 246.424 322.39 246.601 320.328 247.039C318.226 247.486 316.373 248.113 314.769 248.918C313.166 249.724 311.791 250.713 310.646 251.886C309.533 253.01 308.665 254.293 308.042 255.736C307.419 257.178 307.061 258.776 306.968 260.528C306.867 262.239 307.032 264.106 307.461 266.128C307.891 268.149 308.505 269.941 309.302 271.505C310.09 273.027 311.067 274.341 312.231 275.446C313.387 276.51 314.706 277.349 316.189 277.964C317.704 278.529 319.357 278.854 321.15 278.938C322.943 279.021 324.89 278.84 326.992 278.393ZM381.67 273.236C378.638 273.881 375.78 274.15 373.095 274.045C370.451 273.931 368.009 273.478 365.77 272.686C363.563 271.845 361.588 270.701 359.844 269.255C358.091 267.768 356.626 265.946 355.449 263.787C354.272 261.629 353.395 259.195 352.819 256.486C352.235 253.737 352.046 251.158 352.252 248.747C352.458 246.337 353.059 244.097 354.056 242.025C355.052 239.954 356.392 238.106 358.075 236.481C359.789 234.806 361.831 233.379 364.2 232.199C366.61 231.011 369.331 230.095 372.363 229.45C375.396 228.806 378.234 228.541 380.878 228.655C383.562 228.76 386.029 229.229 388.276 230.061C390.515 230.853 392.49 231.997 394.203 233.492C395.956 234.979 397.416 236.781 398.585 238.899C399.753 241.017 400.63 243.451 401.214 246.2C401.79 248.909 401.979 251.488 401.782 253.939C401.584 256.39 400.987 258.65 399.991 260.722C398.986 262.752 397.626 264.605 395.911 266.279C394.228 267.905 392.182 269.311 389.772 270.5C387.403 271.679 384.702 272.592 381.67 273.236ZM380.355 267.05C382.417 266.612 384.25 265.99 385.854 265.184C387.498 264.37 388.876 263.401 389.989 262.277C391.135 261.104 392.019 259.796 392.642 258.354C393.256 256.871 393.614 255.274 393.715 253.562C393.848 251.801 393.699 249.91 393.27 247.889C392.84 245.867 392.211 244.099 391.382 242.585C390.585 241.022 389.608 239.708 388.452 238.644C387.296 237.58 385.961 236.765 384.447 236.199C382.964 235.585 381.306 235.24 379.473 235.165C377.68 235.081 375.753 235.258 373.691 235.697C371.589 236.144 369.736 236.77 368.132 237.576C366.529 238.381 365.154 239.371 364.009 240.544C362.896 241.668 362.028 242.951 361.405 244.393C360.782 245.836 360.424 247.433 360.331 249.185C360.23 250.897 360.395 252.763 360.824 254.785C361.254 256.806 361.868 258.599 362.665 260.162C363.453 261.685 364.43 262.998 365.594 264.103C366.75 265.167 368.069 266.007 369.552 266.621C371.067 267.186 372.72 267.511 374.513 267.595C376.306 267.679 378.253 267.497 380.355 267.05ZM431.314 261.987L422.291 219.535L430.114 217.872L439.138 260.324L431.314 261.987ZM454.914 241.505L420.952 248.723L419.663 242.659L452.594 235.659C454.655 235.221 456.35 234.544 457.676 233.628C459.003 232.712 459.93 231.607 460.457 230.311C460.976 228.976 461.068 227.519 460.733 225.942C460.381 224.285 459.696 222.951 458.679 221.942C457.661 220.933 456.36 220.28 454.776 219.983C453.232 219.677 451.409 219.748 449.306 220.195L430.446 224.204L429.144 218.078L449.339 213.786C451.845 213.253 454.178 213.095 456.337 213.312C458.496 213.53 460.412 214.094 462.085 215.006C463.758 215.919 465.163 217.162 466.301 218.737C467.43 220.272 468.218 222.091 468.665 224.193C469.112 226.296 469.131 228.277 468.724 230.139C468.317 232 467.515 233.692 466.317 235.214C465.111 236.696 463.545 237.98 461.621 239.065C459.696 240.15 457.461 240.963 454.914 241.505ZM423.041 258.548L422.138 254.303L456.524 246.994L457.426 251.239L423.041 258.548Z" fill="#DCD5C8"/>
<path d="M528.807 334.51C526.099 335.085 524.092 333.107 523.373 329.727C522.655 326.347 523.684 323.723 526.391 323.148C529.115 322.569 531.106 324.55 531.825 327.931C532.543 331.311 531.53 333.931 528.807 334.51ZM528.504 333.086C530.272 332.71 530.964 330.96 530.385 328.237C529.806 325.514 528.459 324.18 526.691 324.556C524.922 324.932 524.25 326.694 524.829 329.418C525.408 332.141 526.735 333.462 528.504 333.086ZM536.834 325.835C538.477 325.797 539.981 326.639 540.367 328.454C540.84 330.676 539.315 332.276 537.343 332.695C535.731 333.038 534.147 332.59 533.271 331.238L534.339 330.259C534.884 331.206 535.851 331.524 537.04 331.271C538.355 330.992 539.188 330.062 538.912 328.763C538.632 327.449 537.493 326.938 536.179 327.218L535.803 327.298L535.034 326.529L536.841 322.562L531.974 323.597L531.685 322.235L538.258 320.838L538.531 322.121L536.834 325.835ZM544.303 324.019C546.26 323.603 548.253 324.439 548.729 326.677C549.201 328.899 547.677 330.499 545.705 330.918C544.093 331.261 542.455 330.791 541.59 329.339L542.677 328.372C543.204 329.389 544.212 329.747 545.402 329.494C546.732 329.211 547.565 328.282 547.289 326.983C547.01 325.668 545.871 325.158 544.572 325.434L541.473 326.093L540.672 320.325L546.666 319.051L546.956 320.412L542.276 321.407L542.707 324.358L544.303 324.019ZM547.734 318.824L554.573 317.37L554.849 318.669L552.911 329.174L551.393 329.496L553.316 319.077L548.026 320.201L547.734 318.824Z" fill="white"/>
</g>
<rect x="8.59303" y="132.547" width="519.594" height="332.017" rx="23.5" transform="rotate(-12 8.59303 132.547)" stroke="url(#paint1_linear_1_599)" stroke-opacity="0.12"/>
<g clip-path="url(#clip1_1_599)">
<rect x="35.0391" y="59.6267" width="520.659" height="333.006" rx="24" transform="rotate(-6.57603 35.0391 59.6267)" fill="url(#paint2_linear_1_599)"/>
<g opacity="0.5">
<g opacity="0.12">
<rect x="58.6001" y="93.1079" width="4.84197" height="18.1474" rx="2.42098" transform="rotate(-51.576 58.6001 93.1079)" fill="white"/>
<rect x="90.4902" y="85.99" width="4.8393" height="18.1574" rx="2.41965" transform="rotate(38.424 90.4902 85.99)" fill="white"/>
<rect x="97.647" y="117.896" width="4.84197" height="18.1474" rx="2.42098" transform="rotate(128.424 97.647 117.896)" fill="white"/>
<rect x="65.6895" y="125.032" width="4.8393" height="18.1574" rx="2.41965" transform="rotate(-141.576 65.6895 125.032)" fill="white"/>
</g>
<g opacity="0.12">
<rect x="147.065" y="82.9099" width="4.84197" height="18.1474" rx="2.42098" transform="rotate(-51.576 147.065 82.9099)" fill="white"/>
<rect x="178.955" y="75.792" width="4.8393" height="18.1574" rx="2.41965" transform="rotate(38.424 178.955 75.792)" fill="white"/>
<rect x="186.111" y="107.698" width="4.84197" height="18.1474" rx="2.42098" transform="rotate(128.424 186.111 107.698)" fill="white"/>
<rect x="154.154" y="114.834" width="4.8393" height="18.1574" rx="2.41965" transform="rotate(-141.576 154.154 114.834)" fill="white"/>
</g>
<g opacity="0.12">
<rect x="235.529" y="72.7117" width="4.84197" height="18.1474" rx="2.42098" transform="rotate(-51.576 235.529 72.7117)" fill="white"/>
<rect x="267.419" y="65.5938" width="4.8393" height="18.1574" rx="2.41965" transform="rotate(38.424 267.419 65.5938)" fill="white"/>
<rect x="274.576" y="97.4993" width="4.84197" height="18.1474" rx="2.42098" transform="rotate(128.424 274.576 97.4993)" fill="white"/>
<rect x="242.619" y="104.636" width="4.8393" height="18.1574" rx="2.41965" transform="rotate(-141.576 242.619 104.636)" fill="white"/>
</g>
<g opacity="0.12">
<rect x="323.995" y="62.5134" width="4.84197" height="18.1474" rx="2.42098" transform="rotate(-51.576 323.995 62.5134)" fill="white"/>
<rect x="355.885" y="55.3958" width="4.8393" height="18.1574" rx="2.41965" transform="rotate(38.424 355.885 55.3958)" fill="white"/>
<rect x="363.042" y="87.301" width="4.84197" height="18.1474" rx="2.42098" transform="rotate(128.424 363.042 87.301)" fill="white"/>
<rect x="331.084" y="94.438" width="4.8393" height="18.1574" rx="2.41965" transform="rotate(-141.576 331.084 94.438)" fill="white"/>
</g>
<g opacity="0.12">
<rect x="412.459" y="52.3152" width="4.84197" height="18.1474" rx="2.42098" transform="rotate(-51.576 412.459 52.3152)" fill="white"/>
<rect x="444.349" y="45.1973" width="4.8393" height="18.1574" rx="2.41965" transform="rotate(38.424 444.349 45.1973)" fill="white"/>
<rect x="451.506" y="77.1028" width="4.84197" height="18.1474" rx="2.42098" transform="rotate(128.424 451.506 77.1028)" fill="white"/>
<rect x="419.548" y="84.2397" width="4.8393" height="18.1574" rx="2.41965" transform="rotate(-141.576 419.548 84.2397)" fill="white"/>
</g>
<g opacity="0.12">
<rect x="500.924" y="42.1169" width="4.84197" height="18.1474" rx="2.42098" transform="rotate(-51.576 500.924 42.1169)" fill="white"/>
<rect x="532.814" y="34.999" width="4.8393" height="18.1574" rx="2.41965" transform="rotate(38.424 532.814 34.999)" fill="white"/>
<rect x="539.971" y="66.9045" width="4.84197" height="18.1474" rx="2.42098" transform="rotate(128.424 539.971 66.9045)" fill="white"/>
<rect x="508.013" y="74.0413" width="4.8393" height="18.1574" rx="2.41965" transform="rotate(-141.576 508.013 74.0413)" fill="white"/>
</g>
<g opacity="0.12">
<rect x="67.4243" y="169.652" width="4.84197" height="18.1474" rx="2.42098" transform="rotate(-51.576 67.4243 169.652)" fill="white"/>
<rect x="99.3145" y="162.534" width="4.8393" height="18.1574" rx="2.41965" transform="rotate(38.424 99.3145 162.534)" fill="white"/>
<rect x="106.471" y="194.439" width="4.84197" height="18.1474" rx="2.42098" transform="rotate(128.424 106.471 194.439)" fill="white"/>
<rect x="74.5137" y="201.576" width="4.8393" height="18.1574" rx="2.41965" transform="rotate(-141.576 74.5137 201.576)" fill="white"/>
</g>
<g opacity="0.12">
<rect x="155.889" y="159.454" width="4.84197" height="18.1474" rx="2.42098" transform="rotate(-51.576 155.889 159.454)" fill="white"/>
<rect x="187.779" y="152.336" width="4.8393" height="18.1574" rx="2.41965" transform="rotate(38.424 187.779 152.336)" fill="white"/>
<rect x="194.936" y="184.241" width="4.84197" height="18.1474" rx="2.42098" transform="rotate(128.424 194.936 184.241)" fill="white"/>
<rect x="162.979" y="191.378" width="4.8393" height="18.1574" rx="2.41965" transform="rotate(-141.576 162.979 191.378)" fill="white"/>
</g>
<g opacity="0.12">
<rect x="244.354" y="149.256" width="4.84197" height="18.1474" rx="2.42098" transform="rotate(-51.576 244.354 149.256)" fill="white"/>
<rect x="276.244" y="142.138" width="4.8393" height="18.1574" rx="2.41965" transform="rotate(38.424 276.244 142.138)" fill="white"/>
<rect x="283.4" y="174.043" width="4.84197" height="18.1474" rx="2.42098" transform="rotate(128.424 283.4 174.043)" fill="white"/>
<rect x="251.443" y="181.18" width="4.8393" height="18.1574" rx="2.41965" transform="rotate(-141.576 251.443 181.18)" fill="white"/>
</g>
<g opacity="0.12">
<rect x="332.818" y="139.057" width="4.84197" height="18.1474" rx="2.42098" transform="rotate(-51.576 332.818 139.057)" fill="white"/>
<rect x="364.708" y="131.939" width="4.8393" height="18.1574" rx="2.41965" transform="rotate(38.424 364.708 131.939)" fill="white"/>
<rect x="371.865" y="163.845" width="4.84197" height="18.1474" rx="2.42098" transform="rotate(128.424 371.865 163.845)" fill="white"/>
<rect x="339.908" y="170.981" width="4.8393" height="18.1574" rx="2.41965" transform="rotate(-141.576 339.908 170.981)" fill="white"/>
</g>
<g opacity="0.12">
<rect x="421.283" y="128.859" width="4.84197" height="18.1474" rx="2.42098" transform="rotate(-51.576 421.283 128.859)" fill="white"/>
<rect x="453.173" y="121.741" width="4.8393" height="18.1574" rx="2.41965" transform="rotate(38.424 453.173 121.741)" fill="white"/>
<rect x="460.33" y="153.647" width="4.84197" height="18.1474" rx="2.42098" transform="rotate(128.424 460.33 153.647)" fill="white"/>
<rect x="428.373" y="160.784" width="4.8393" height="18.1574" rx="2.41965" transform="rotate(-141.576 428.373 160.784)" fill="white"/>
</g>
<g opacity="0.12">
<rect x="509.749" y="118.661" width="4.84197" height="18.1474" rx="2.42098" transform="rotate(-51.576 509.749 118.661)" fill="white"/>
<rect x="541.639" y="111.543" width="4.8393" height="18.1574" rx="2.41965" transform="rotate(38.424 541.639 111.543)" fill="white"/>
<rect x="548.795" y="143.448" width="4.84197" height="18.1474" rx="2.42098" transform="rotate(128.424 548.795 143.448)" fill="white"/>
<rect x="516.838" y="150.585" width="4.8393" height="18.1574" rx="2.41965" transform="rotate(-141.576 516.838 150.585)" fill="white"/>
</g>
<g opacity="0.12">
<rect x="76.248" y="246.196" width="4.84197" height="18.1474" rx="2.42098" transform="rotate(-51.576 76.248 246.196)" fill="white"/>
<rect x="108.138" y="239.078" width="4.8393" height="18.1574" rx="2.41965" transform="rotate(38.424 108.138 239.078)" fill="white"/>
<rect x="115.295" y="270.983" width="4.84197" height="18.1474" rx="2.42098" transform="rotate(128.424 115.295 270.983)" fill="white"/>
<rect x="83.3374" y="278.12" width="4.8393" height="18.1574" rx="2.41965" transform="rotate(-141.576 83.3374 278.12)" fill="white"/>
</g>
<g opacity="0.12">
<rect x="164.713" y="235.998" width="4.84197" height="18.1474" rx="2.42098" transform="rotate(-51.576 164.713 235.998)" fill="white"/>
<rect x="196.603" y="228.88" width="4.8393" height="18.1574" rx="2.41965" transform="rotate(38.424 196.603 228.88)" fill="white"/>
<rect x="203.759" y="260.785" width="4.84197" height="18.1474" rx="2.42098" transform="rotate(128.424 203.759 260.785)" fill="white"/>
<rect x="171.802" y="267.922" width="4.8393" height="18.1574" rx="2.41965" transform="rotate(-141.576 171.802 267.922)" fill="white"/>
</g>
<g opacity="0.12">
<rect x="253.177" y="225.8" width="4.84197" height="18.1474" rx="2.42098" transform="rotate(-51.576 253.177 225.8)" fill="white"/>
<rect x="285.067" y="218.682" width="4.8393" height="18.1574" rx="2.41965" transform="rotate(38.424 285.067 218.682)" fill="white"/>
<rect x="292.224" y="250.587" width="4.84197" height="18.1474" rx="2.42098" transform="rotate(128.424 292.224 250.587)" fill="white"/>
<rect x="260.267" y="257.724" width="4.8393" height="18.1574" rx="2.41965" transform="rotate(-141.576 260.267 257.724)" fill="white"/>
</g>
<g opacity="0.12">
<rect x="341.642" y="215.601" width="4.84197" height="18.1474" rx="2.42098" transform="rotate(-51.576 341.642 215.601)" fill="white"/>
<rect x="373.532" y="208.483" width="4.8393" height="18.1574" rx="2.41965" transform="rotate(38.424 373.532 208.483)" fill="white"/>
<rect x="380.688" y="240.389" width="4.84197" height="18.1474" rx="2.42098" transform="rotate(128.424 380.688 240.389)" fill="white"/>
<rect x="348.731" y="247.526" width="4.8393" height="18.1574" rx="2.41965" transform="rotate(-141.576 348.731 247.526)" fill="white"/>
</g>
<g opacity="0.12">
<rect x="430.107" y="205.403" width="4.84197" height="18.1474" rx="2.42098" transform="rotate(-51.576 430.107 205.403)" fill="white"/>
<rect x="461.997" y="198.285" width="4.8393" height="18.1574" rx="2.41965" transform="rotate(38.424 461.997 198.285)" fill="white"/>
<rect x="469.154" y="230.191" width="4.84197" height="18.1474" rx="2.42098" transform="rotate(128.424 469.154 230.191)" fill="white"/>
<rect x="437.196" y="237.327" width="4.8393" height="18.1574" rx="2.41965" transform="rotate(-141.576 437.196 237.327)" fill="white"/>
</g>
<g opacity="0.12">
<rect x="518.572" y="195.205" width="4.84197" height="18.1474" rx="2.42098" transform="rotate(-51.576 518.572 195.205)" fill="white"/>
<rect x="550.462" y="188.087" width="4.8393" height="18.1574" rx="2.41965" transform="rotate(38.424 550.462 188.087)" fill="white"/>
<rect x="557.619" y="219.992" width="4.84197" height="18.1474" rx="2.42098" transform="rotate(128.424 557.619 219.992)" fill="white"/>
<rect x="525.662" y="227.129" width="4.8393" height="18.1574" rx="2.41965" transform="rotate(-141.576 525.662 227.129)" fill="white"/>
</g>
<g opacity="0.12">
<rect x="85.0723" y="322.74" width="4.84197" height="18.1474" rx="2.42098" transform="rotate(-51.576 85.0723 322.74)" fill="white"/>
<rect x="116.962" y="315.622" width="4.8393" height="18.1574" rx="2.41965" transform="rotate(38.424 116.962 315.622)" fill="white"/>
<rect x="124.119" y="347.527" width="4.84197" height="18.1474" rx="2.42098" transform="rotate(128.424 124.119 347.527)" fill="white"/>
<rect x="92.1616" y="354.664" width="4.8393" height="18.1574" rx="2.41965" transform="rotate(-141.576 92.1616 354.664)" fill="white"/>
</g>
<g opacity="0.12">
<rect x="173.537" y="312.542" width="4.84197" height="18.1474" rx="2.42098" transform="rotate(-51.576 173.537 312.542)" fill="white"/>
<rect x="205.427" y="305.424" width="4.8393" height="18.1574" rx="2.41965" transform="rotate(38.424 205.427 305.424)" fill="white"/>
<rect x="212.583" y="337.329" width="4.84197" height="18.1474" rx="2.42098" transform="rotate(128.424 212.583 337.329)" fill="white"/>
<rect x="180.626" y="344.466" width="4.8393" height="18.1574" rx="2.41965" transform="rotate(-141.576 180.626 344.466)" fill="white"/>
</g>
<g opacity="0.12">
<rect x="262.001" y="302.344" width="4.84197" height="18.1474" rx="2.42098" transform="rotate(-51.576 262.001 302.344)" fill="white"/>
<rect x="293.892" y="295.226" width="4.8393" height="18.1574" rx="2.41965" transform="rotate(38.424 293.892 295.226)" fill="white"/>
<rect x="301.048" y="327.131" width="4.84197" height="18.1474" rx="2.42098" transform="rotate(128.424 301.048 327.131)" fill="white"/>
<rect x="269.091" y="334.268" width="4.8393" height="18.1574" rx="2.41965" transform="rotate(-141.576 269.091 334.268)" fill="white"/>
</g>
<g opacity="0.12">
<rect x="350.466" y="292.145" width="4.84197" height="18.1474" rx="2.42098" transform="rotate(-51.576 350.466 292.145)" fill="white"/>
<rect x="382.356" y="285.027" width="4.8393" height="18.1574" rx="2.41965" transform="rotate(38.424 382.356 285.027)" fill="white"/>
<rect x="389.513" y="316.933" width="4.84197" height="18.1474" rx="2.42098" transform="rotate(128.424 389.513 316.933)" fill="white"/>
<rect x="357.556" y="324.07" width="4.8393" height="18.1574" rx="2.41965" transform="rotate(-141.576 357.556 324.07)" fill="white"/>
</g>
<g opacity="0.12">
<rect x="438.932" y="281.947" width="4.84197" height="18.1474" rx="2.42098" transform="rotate(-51.576 438.932 281.947)" fill="white"/>
<rect x="470.821" y="274.829" width="4.8393" height="18.1574" rx="2.41965" transform="rotate(38.424 470.821 274.829)" fill="white"/>
<rect x="477.978" y="306.735" width="4.84197" height="18.1474" rx="2.42098" transform="rotate(128.424 477.978 306.735)" fill="white"/>
<rect x="446.021" y="313.872" width="4.8393" height="18.1574" rx="2.41965" transform="rotate(-141.576 446.021 313.872)" fill="white"/>
</g>
<g opacity="0.12">
<rect x="527.396" y="271.749" width="4.84197" height="18.1474" rx="2.42098" transform="rotate(-51.576 527.396 271.749)" fill="white"/>
<rect x="559.286" y="264.631" width="4.8393" height="18.1574" rx="2.41965" transform="rotate(38.424 559.286 264.631)" fill="white"/>
<rect x="566.442" y="296.536" width="4.84197" height="18.1474" rx="2.42098" transform="rotate(128.424 566.442 296.536)" fill="white"/>
<rect x="534.485" y="303.673" width="4.8393" height="18.1574" rx="2.41965" transform="rotate(-141.576 534.485 303.673)" fill="white"/>
</g>
</g>
<path opacity="0.75" d="M298.128 139.211L298.003 139.584L297.855 140.024L297.857 140.025L297.802 140.19L290.127 163.201L290.077 163.352L288.901 163.488L289.025 163.115L296.582 140.475L293.53 140.827L285.932 163.684L285.882 163.836L284.709 163.971L284.832 163.599L292.357 140.962L281.867 142.171L281.743 141.099L298.128 139.211ZM294.911 158.92C295.323 158.627 295.824 158.517 296.32 158.608C296.816 158.699 297.248 158.984 297.535 159.404C297.821 159.824 297.932 160.331 297.843 160.834C297.697 161.684 297.015 162.306 296.209 162.399C296.031 162.42 295.848 162.415 295.661 162.379C294.639 162.188 293.958 161.189 294.138 160.153C294.224 159.651 294.499 159.212 294.911 158.92ZM307.021 138.185L306.816 138.598L303.128 146.007C304.133 145.339 305.302 144.893 306.574 144.747C310.963 144.241 314.946 147.479 315.461 151.95C315.977 156.421 312.835 160.48 308.446 160.987C304.055 161.493 300.074 158.255 299.558 153.783C299.395 152.369 299.597 150.996 300.089 149.764L300.071 149.758L300.193 149.51L300.237 149.421C300.315 149.249 300.399 149.082 300.486 148.918L305.692 138.454L305.753 138.332L307.021 138.185ZM322.981 135.912C326.599 135.678 329.839 138.206 330.61 141.779L330.679 142.14L330.68 142.149L330.727 142.517L330.757 142.808C330.863 144.247 330.261 145.43 330.126 145.71L330.124 145.709L324.432 157.561L331.945 156.695L332.069 157.767L322.622 158.856L322.817 158.447L329.254 145.052L329.378 144.77C329.645 144.101 329.752 143.374 329.67 142.658L329.668 142.642C329.562 141.725 329.268 140.876 328.833 140.129L319.642 159.08L319.583 159.203L318.322 159.349L318.52 158.94L328.122 139.138C326.81 137.632 324.833 136.776 322.739 137.017C321.166 137.199 319.736 137.974 318.713 139.201C317.706 140.408 317.182 141.942 317.232 143.526L317.239 143.755L316.177 143.877L316.167 143.608C316.094 141.742 316.711 139.927 317.899 138.502C319.1 137.068 320.774 136.158 322.618 135.945L322.981 135.912ZM306.698 145.819C302.903 146.256 300.169 149.771 300.617 153.661C301.066 157.551 304.528 160.352 308.323 159.915C312.117 159.477 314.85 155.962 314.402 152.072C313.954 148.182 310.492 145.381 306.698 145.819ZM295.798 159.681C295.702 159.705 295.609 159.747 295.526 159.806C295.348 159.932 295.23 160.121 295.192 160.344C295.113 160.803 295.415 161.237 295.853 161.318C296.29 161.398 296.714 161.102 296.792 160.645L296.803 160.562C296.817 160.369 296.767 160.178 296.657 160.017C296.531 159.832 296.345 159.711 296.131 159.672L296.129 159.672L296.129 159.671C296.053 159.656 295.974 159.654 295.894 159.663L295.798 159.681ZM307.003 148.478C309.378 148.204 311.529 149.956 311.808 152.37C312.086 154.784 310.39 156.98 308.015 157.254C305.637 157.528 303.488 155.775 303.209 153.361C302.931 150.948 304.628 148.752 307.003 148.478ZM307.127 149.551C305.346 149.756 304.059 151.406 304.27 153.239C304.481 155.072 306.111 156.387 307.891 156.182C309.672 155.976 310.961 154.325 310.749 152.492C310.538 150.66 308.908 149.346 307.127 149.551Z" fill="white" stroke="white" stroke-width="0.5"/>
<path d="M147.978 263.031L147.254 256.749L189.136 251.921L189.86 258.203L147.978 263.031ZM169.061 216.913L173.91 258.981L165.965 259.897L161.89 224.543L145.067 229.665L144.315 223.136L162.101 217.716L169.061 216.913ZM215.653 255.916C212.573 256.271 209.702 256.269 207.039 255.91C204.418 255.547 202.03 254.865 199.876 253.865C197.758 252.82 195.9 251.495 194.3 249.89C192.696 248.244 191.41 246.291 190.442 244.031C189.474 241.771 188.831 239.266 188.514 236.514C188.192 233.722 188.248 231.136 188.681 228.756C189.114 226.376 189.924 224.203 191.112 222.235C192.3 220.267 193.808 218.554 195.637 217.095C197.502 215.59 199.67 214.362 202.14 213.412C204.651 212.457 207.447 211.802 210.526 211.447C213.606 211.092 216.456 211.096 219.078 211.459C221.741 211.818 224.151 212.518 226.31 213.559C228.464 214.559 230.323 215.884 231.886 217.535C233.49 219.18 234.774 221.113 235.737 223.332C236.7 225.551 237.343 228.056 237.665 230.848C237.982 233.599 237.926 236.185 237.498 238.606C237.07 241.027 236.262 243.222 235.074 245.189C233.881 247.116 232.353 248.832 230.487 250.337C228.658 251.796 226.488 253.003 223.977 253.958C221.507 254.908 218.732 255.561 215.653 255.916ZM214.928 249.634C217.023 249.392 218.906 248.946 220.578 248.296C222.292 247.641 223.756 246.806 224.971 245.792C226.221 244.733 227.225 243.515 227.982 242.138C228.734 240.719 229.241 239.163 229.503 237.469C229.802 235.728 229.833 233.832 229.596 231.778C229.359 229.725 228.9 227.906 228.218 226.32C227.572 224.689 226.724 223.289 225.674 222.12C224.624 220.951 223.372 220.014 221.917 219.308C220.499 218.556 218.881 218.056 217.064 217.808C215.287 217.555 213.352 217.549 211.258 217.791C209.122 218.037 207.219 218.485 205.546 219.136C203.874 219.786 202.412 220.641 201.161 221.701C199.946 222.714 198.961 223.91 198.204 225.287C197.448 226.664 196.94 228.22 196.683 229.956C196.421 231.65 196.408 233.524 196.644 235.577C196.881 237.63 197.322 239.472 197.968 241.104C198.609 242.694 199.457 244.094 200.512 245.304C201.562 246.473 202.796 247.433 204.214 248.185C205.669 248.891 207.284 249.371 209.061 249.624C210.837 249.877 212.793 249.88 214.928 249.634ZM285.309 247.886C282.23 248.241 279.359 248.239 276.696 247.88C274.075 247.517 271.687 246.835 269.533 245.835C267.415 244.79 265.556 243.464 263.957 241.86C262.352 240.214 261.066 238.261 260.099 236.001C259.131 233.741 258.488 231.235 258.171 228.484C257.849 225.692 257.905 223.106 258.338 220.726C258.771 218.346 259.581 216.173 260.769 214.205C261.957 212.237 263.465 210.524 265.294 209.065C267.159 207.56 269.327 206.332 271.797 205.382C274.308 204.427 277.103 203.772 280.183 203.417C283.263 203.062 286.113 203.066 288.735 203.429C291.397 203.788 293.808 204.488 295.967 205.529C298.121 206.529 299.979 207.854 301.543 209.504C303.147 211.15 304.431 213.083 305.394 215.302C306.357 217.521 307 220.026 307.322 222.818C307.639 225.569 307.583 228.155 307.155 230.576C306.727 232.997 305.919 235.192 304.731 237.159C303.538 239.086 302.009 240.802 300.144 242.306C298.315 243.766 296.145 244.973 293.634 245.928C291.164 246.878 288.389 247.531 285.309 247.886ZM284.585 241.604C286.679 241.362 288.563 240.916 290.235 240.266C291.949 239.611 293.413 238.776 294.627 237.762C295.878 236.703 296.882 235.485 297.639 234.107C298.391 232.689 298.898 231.133 299.16 229.439C299.459 227.698 299.49 225.802 299.253 223.748C299.016 221.695 298.557 219.876 297.875 218.29C297.229 216.659 296.381 215.259 295.331 214.09C294.281 212.921 293.029 211.984 291.574 211.278C290.156 210.526 288.538 210.026 286.721 209.778C284.944 209.525 283.009 209.519 280.914 209.761C278.779 210.007 276.875 210.455 275.203 211.106C273.53 211.756 272.069 212.611 270.818 213.671C269.603 214.684 268.618 215.88 267.861 217.257C267.104 218.634 266.597 220.19 266.34 221.926C266.077 223.62 266.064 225.494 266.301 227.547C266.538 229.6 266.979 231.442 267.625 233.074C268.266 234.664 269.114 236.064 270.169 237.274C271.219 238.443 272.453 239.403 273.871 240.155C275.325 240.861 276.941 241.341 278.717 241.594C280.494 241.846 282.45 241.85 284.585 241.604ZM339.506 241.638C336.426 241.993 333.555 241.991 330.892 241.633C328.271 241.269 325.883 240.588 323.729 239.588C321.611 238.542 319.753 237.217 318.153 235.612C316.549 233.966 315.263 232.013 314.295 229.753C313.327 227.493 312.684 224.988 312.367 222.237C312.045 219.444 312.101 216.858 312.534 214.479C312.967 212.099 313.777 209.925 314.965 207.957C316.153 205.99 317.661 204.276 319.49 202.817C321.355 201.312 323.523 200.085 325.993 199.134C328.504 198.179 331.3 197.524 334.379 197.169C337.459 196.814 340.309 196.818 342.931 197.182C345.594 197.54 348.004 198.24 350.163 199.281C352.317 200.281 354.176 201.606 355.739 203.257C357.343 204.903 358.627 206.835 359.59 209.054C360.553 211.273 361.196 213.778 361.518 216.571C361.835 219.322 361.779 221.908 361.351 224.329C360.923 226.75 360.115 228.944 358.927 230.912C357.735 232.838 356.206 234.554 354.34 236.059C352.511 237.518 350.341 238.725 347.83 239.68C345.36 240.631 342.585 241.283 339.506 241.638ZM338.781 235.356C340.876 235.115 342.759 234.669 344.431 234.018C346.145 233.363 347.609 232.528 348.824 231.515C350.075 230.455 351.078 229.237 351.835 227.86C352.587 226.442 353.094 224.885 353.356 223.191C353.655 221.45 353.686 219.554 353.449 217.501C353.212 215.448 352.753 213.628 352.071 212.043C351.425 210.411 350.577 209.011 349.527 207.842C348.477 206.674 347.225 205.736 345.77 205.03C344.352 204.278 342.734 203.778 340.917 203.53C339.14 203.277 337.205 203.271 335.111 203.513C332.975 203.759 331.072 204.207 329.399 204.858C327.727 205.508 326.265 206.363 325.014 207.423C323.799 208.437 322.814 209.632 322.057 211.009C321.301 212.386 320.793 213.942 320.536 215.678C320.274 217.373 320.261 219.246 320.497 221.299C320.734 223.352 321.175 225.195 321.821 226.826C322.462 228.417 323.31 229.817 324.365 231.026C325.415 232.195 326.649 233.156 328.067 233.907C329.522 234.614 331.137 235.093 332.914 235.346C334.69 235.599 336.646 235.602 338.781 235.356ZM393.702 235.391C390.622 235.746 387.751 235.744 385.089 235.385C382.467 235.021 380.079 234.34 377.925 233.34C375.808 232.294 373.949 230.969 372.349 229.364C370.745 227.719 369.459 225.766 368.491 223.506C367.523 221.246 366.881 218.74 366.563 215.989C366.242 213.197 366.297 210.611 366.73 208.231C367.163 205.851 367.973 203.677 369.161 201.709C370.349 199.742 371.857 198.028 373.686 196.569C375.552 195.065 377.719 193.837 380.189 192.886C382.701 191.931 385.496 191.276 388.576 190.921C391.655 190.566 394.506 190.57 397.127 190.934C399.79 191.293 402.201 191.992 404.359 193.033C406.513 194.033 408.372 195.359 409.935 197.009C411.54 198.655 412.823 200.587 413.786 202.806C414.75 205.025 415.392 207.531 415.714 210.323C416.031 213.074 415.976 215.66 415.547 218.081C415.119 220.502 414.311 222.696 413.123 224.664C411.931 226.59 410.402 228.306 408.537 229.811C406.708 231.27 404.538 232.477 402.026 233.432C399.556 234.383 396.782 235.036 393.702 235.391ZM392.978 229.108C395.072 228.867 396.955 228.421 398.628 227.77C400.341 227.115 401.805 226.281 403.02 225.267C404.271 224.207 405.275 222.989 406.031 221.612C406.783 220.194 407.29 218.638 407.552 216.943C407.851 215.203 407.882 213.306 407.645 211.253C407.409 209.2 406.949 207.381 406.267 205.795C405.622 204.163 404.774 202.763 403.724 201.595C402.673 200.426 401.421 199.488 399.967 198.782C398.549 198.03 396.931 197.53 395.113 197.282C393.336 197.029 391.401 197.024 389.307 197.265C387.172 197.511 385.268 197.96 383.595 198.61C381.923 199.261 380.461 200.116 379.21 201.175C377.996 202.189 377.01 203.384 376.253 204.761C375.497 206.138 374.99 207.695 374.732 209.43C374.47 211.125 374.457 212.999 374.694 215.052C374.93 217.105 375.372 218.947 376.017 220.578C376.658 222.169 377.506 223.569 378.561 224.779C379.611 225.948 380.845 226.908 382.263 227.66C383.718 228.366 385.333 228.845 387.11 229.098C388.887 229.351 390.843 229.354 392.978 229.108ZM444.187 228.884L439.217 185.77L447.162 184.854L452.132 227.968L444.187 228.884ZM469.617 210.724L435.125 214.701L434.415 208.541L467.86 204.686C469.954 204.445 471.704 203.931 473.112 203.144C474.519 202.358 475.546 201.345 476.194 200.105C476.837 198.825 477.066 197.384 476.881 195.782C476.687 194.099 476.131 192.706 475.214 191.606C474.297 190.505 473.063 189.732 471.514 189.286C470.006 188.836 468.184 188.734 466.049 188.98L446.894 191.188L446.177 184.967L466.687 182.603C469.233 182.309 471.57 182.373 473.699 182.793C475.828 183.213 477.682 183.957 479.261 185.023C480.84 186.089 482.121 187.46 483.105 189.136C484.084 190.77 484.697 192.655 484.943 194.79C485.189 196.926 485.021 198.9 484.44 200.715C483.859 202.53 482.9 204.138 481.564 205.54C480.223 206.901 478.543 208.031 476.525 208.93C474.506 209.828 472.204 210.426 469.617 210.724ZM436.275 224.679L435.778 220.367L470.701 216.341L471.198 220.653L436.275 224.679Z" fill="#FFE0A2"/>
<path d="M534.386 310.298C531.636 310.615 529.825 308.456 529.429 305.023C529.033 301.59 530.306 299.075 533.056 298.758C535.821 298.44 537.616 300.6 538.012 304.033C538.408 307.467 537.152 309.979 534.386 310.298ZM534.219 308.851C536.015 308.644 536.869 306.968 536.55 304.202C536.231 301.436 535.017 299.982 533.22 300.189C531.424 300.396 530.588 302.087 530.907 304.852C531.226 307.618 532.423 309.059 534.219 308.851ZM543.197 302.421C544.837 302.538 546.255 303.518 546.467 305.362C546.727 307.619 545.058 309.068 543.056 309.298C541.418 309.487 539.884 308.891 539.14 307.463L540.295 306.589C540.748 307.583 541.681 307.991 542.889 307.852C544.224 307.698 545.141 306.852 544.989 305.532C544.835 304.197 543.749 303.581 542.414 303.735L542.033 303.779L541.34 302.941L543.514 299.163L538.571 299.733L538.411 298.35L545.087 297.581L545.237 298.884L543.197 302.421ZM550.805 301.318C552.792 301.089 554.697 302.11 554.959 304.383C555.219 306.64 553.55 308.089 551.548 308.319C549.911 308.508 548.325 307.886 547.601 306.359L548.774 305.499C549.203 306.56 550.173 307.012 551.381 306.873C552.732 306.717 553.649 305.871 553.497 304.551C553.343 303.216 552.257 302.601 550.938 302.753L547.791 303.115L547.539 297.298L553.627 296.596L553.786 297.979L549.034 298.527L549.184 301.505L550.805 301.318ZM554.711 296.471L561.657 295.671L561.809 296.99L558.886 307.264L557.345 307.442L560.245 297.251L554.872 297.87L554.711 296.471Z" fill="white"/>
</g>
<rect x="35.593" y="60.0662" width="519.659" height="332.006" rx="23.5" transform="rotate(-6.57603 35.593 60.0662)" stroke="url(#paint3_linear_1_599)" stroke-opacity="0.12"/>
<defs>
<linearGradient id="paint0_linear_1_599" x1="268.297" y1="132.162" x2="268.297" y2="465.179" gradientUnits="userSpaceOnUse">
<stop stop-color="#1C1C1C"/>
<stop offset="1" stop-color="#2C2C2C"/>
</linearGradient>
<linearGradient id="paint1_linear_1_599" x1="11.2742" y1="38.1651" x2="514.266" y2="51.2506" gradientUnits="userSpaceOnUse">
<stop stop-color="white"/>
<stop offset="1" stop-color="white" stop-opacity="0.25"/>
</linearGradient>
<linearGradient id="paint2_linear_1_599" x1="295.369" y1="59.6267" x2="295.369" y2="392.632" gradientUnits="userSpaceOnUse">
<stop stop-color="#1C1C1C"/>
<stop offset="1" stop-color="#2C2C2C"/>
</linearGradient>
<linearGradient id="paint3_linear_1_599" x1="38.3136" y1="-34.3668" x2="541.369" y2="-21.2776" gradientUnits="userSpaceOnUse">
<stop stop-color="white"/>
<stop offset="1" stop-color="white" stop-opacity="0.25"/>
</linearGradient>
<clipPath id="clip0_1_599">
<rect x="8" y="132.162" width="520.594" height="333.017" rx="24" transform="rotate(-12 8 132.162)" fill="white"/>
</clipPath>
<clipPath id="clip1_1_599">
<rect x="35.0391" y="59.6267" width="520.659" height="333.006" rx="24" transform="rotate(-6.57603 35.0391 59.6267)" fill="white"/>
</clipPath>
</defs>
</svg>
