<svg width="44" height="22" viewBox="0 0 44 22" fill="none" xmlns="http://www.w3.org/2000/svg">
<path d="M15.0977 1.13281L14.9238 1.49121L14.7578 1.83203L14.7598 1.83398L14.6826 1.99414L5.49219 21.1084L5.4248 21.25H4.30371L4.47559 20.8916L13.499 2.13574H10.8076L1.70898 21.1084L1.6416 21.25H0.522461L0.694336 20.8916L9.68945 2.13574H0.25V1.13281H15.0977ZM10.1562 17.8398C10.5588 17.6252 11.0212 17.5795 11.458 17.709C11.8957 17.8388 12.257 18.1325 12.4736 18.5322C12.6901 18.9318 12.7384 19.392 12.6045 19.8281C12.3816 20.5648 11.698 21.0371 10.9648 21.0371V21.0381C10.8018 21.0381 10.6373 21.015 10.4727 20.9648V20.9639C9.57296 20.6938 9.05437 19.7477 9.32715 18.8477L9.38379 18.6885C9.53381 18.3252 9.80438 18.0275 10.1562 17.8398ZM23.126 1.13281L22.8652 1.52148L18.8877 7.45801C19.8303 7.00761 20.8864 6.75488 22 6.75488C25.9654 6.75516 29.1963 9.95733 29.1963 13.8955C29.1963 17.8337 25.9654 21.0359 22 21.0361C18.0322 21.0361 14.8028 17.8338 14.8027 13.8955C14.8027 12.6641 15.1199 11.5046 15.6758 10.4922L15.6553 10.4824L15.8125 10.2461L15.8604 10.1748C15.9033 10.1054 15.9471 10.0369 15.9922 9.96973L16.1348 9.76465L21.8418 1.24316L21.916 1.13281H23.126ZM37.5078 0.757812C40.76 0.916647 43.399 3.4302 43.7207 6.61426L43.7451 6.93457L43.7461 6.94434L43.749 7.26562L43.7461 7.52246C43.6922 8.78695 43.0302 9.75485 42.8799 9.98438L42.8809 9.98535L36.6328 19.6035H43.3789V20.6074H34.7793L35.0303 20.2207L42.1318 9.29102L42.2705 9.06055C42.5742 8.51398 42.7422 7.90372 42.7422 7.28418V7.26953C42.7422 6.48882 42.5748 5.74681 42.2783 5.07324L32.1797 20.4912L32.1055 20.6045H30.9014L31.1553 20.2178L41.7178 4.08984C40.709 2.67825 39.052 1.75399 37.1787 1.75391C35.7655 1.75391 34.4189 2.27822 33.3877 3.23145V3.23242C32.3727 4.16977 31.753 5.43487 31.6357 6.79785L31.6162 7.02637H30.6064L30.6279 6.75684C30.7556 5.12722 31.4947 3.61375 32.7041 2.49609C33.9249 1.37174 35.5131 0.750081 37.1807 0.75L37.5078 0.757812ZM21.6816 7.7666C18.4153 7.9315 15.8105 10.6203 15.8105 13.8955L15.8184 14.2109C15.9846 17.4462 18.6931 20.0322 22 20.0322C25.4134 20.032 28.1884 17.2763 28.1885 13.8955L28.1807 13.5801C28.0145 10.345 25.3066 7.75905 22 7.75879L21.6816 7.7666ZM10.9648 18.6436C10.8512 18.6436 10.7365 18.6712 10.6328 18.7266C10.4673 18.815 10.3478 18.9608 10.2939 19.1396C10.184 19.5049 10.3937 19.8936 10.7656 20.0039H10.7646C11.1377 20.1144 11.5293 19.9029 11.6396 19.5371C11.6934 19.3599 11.6744 19.1727 11.5859 19.0098C11.4971 18.8462 11.3511 18.7266 11.1699 18.6729L11.167 18.6719C11.1033 18.6523 11.0354 18.6436 10.9648 18.6436ZM21.999 10.0215C24.1487 10.0215 25.9021 11.7574 25.9023 13.8945C25.9023 15.9651 24.2567 17.6599 22.1992 17.7637L21.999 17.7686C19.847 17.7684 18.0957 16.0317 18.0957 13.8945C18.096 11.7575 19.8494 10.0216 21.999 10.0215ZM21.7031 11.04C20.2443 11.1876 19.1047 12.4136 19.1045 13.8945C19.1045 15.4745 20.4013 16.7645 21.999 16.7646C23.5969 16.7646 24.8945 15.4745 24.8945 13.8945C24.8943 12.3149 23.5968 11.0254 21.999 11.0254L21.7031 11.04Z" fill="white" stroke="white" stroke-width="0.5"/>
</svg>
